:FULLY-SPECIFIED
:DEGREES
500
root 5.52781 16.4371 -1.96419 -83.8405 -85.7917 99.0501
lowerback -5.38284 -0.263529 -2.38691
upperback -4.25057 -0.390269 -1.58564
thorax -1.35431 -0.215377 -0.305772
lowerneck -16.3843 -1.95536 0.460462
upperneck 20.4162 -3.33902 1.39335
head 9.13943 -1.43834 -0.030589
rclavicle -3.47873e-015 4.77083e-015
rhumerus -34.47 0.856628 -84.6051
rradius 37.0615
rwrist 13.3628
rhand -24.5498 -6.15745
rfingers 7.12502
rthumb 1.94634 -36.1283
lclavicle -3.47873e-015 4.77083e-015
lhumerus -39.6686 -9.21392 87.8995
lradius 33.3985
lwrist -7.77433
lhand -37.0039 -1.88826
lfingers 7.12502
lthumb -10.0784 27.8504
rfemur -30.6375 -3.04505 16.9131
rtibia 66.2473
rfoot -3.13718 -5.07744
rtoes -19.6832
lfemur -30.106 -13.0979 -26.2728
ltibia 20.9211
lfoot -5.11132 17.6054
ltoes -4.25873
501
root 5.53769 16.4295 -1.94105 -85.6006 -85.5951 100.735
lowerback -5.35444 -0.370004 -2.52022
upperback -4.22028 -0.527888 -1.62197
thorax -1.33688 -0.28226 -0.274046
lowerneck -16.3543 -1.87886 0.477986
upperneck 20.4784 -3.2359 1.36768
head 9.15412 -1.39234 -0.0295031
rclavicle -8.15017e-015 -5.70512e-014
rhumerus -34.6544 0.675759 -84.6231
rradius 36.6573
rwrist 13.458
rhand -24.7938 -5.91976
rfingers 7.12502
rthumb 1.71072 -35.8926
lclavicle -8.15017e-015 -5.70512e-014
lhumerus -39.3485 -9.83881 87.9725
lradius 33.7254
lwrist -7.72898
lhand -37.0841 -1.80197
lfingers 7.12502
lthumb -10.1557 27.9329
rfemur -32.2876 -3.21292 16.6199
rtibia 68.0285
rfoot -3.52777 -5.50307
rtoes -19.0368
lfemur -29.6207 -12.8381 -26.7973
ltibia 21.1947
lfoot -5.67166 17.573
ltoes -4.48583
502
root 5.55001 16.4258 -1.9209 -85.9207 -85.5576 101.034
lowerback -5.34355 -0.489583 -2.52091
upperback -4.20934 -0.686838 -1.59151
thorax -1.32912 -0.361432 -0.248848
lowerneck -16.326 -1.8039 0.488744
upperneck 20.5384 -3.13138 1.33595
head 9.16839 -1.34681 -0.0291795
rclavicle -5.96354e-016 1.6934e-014
rhumerus -34.8266 0.4108 -84.5564
rradius 36.2879
rwrist 13.7301
rhand -24.9111 -6.02906
rfingers 7.12502
rthumb 1.59739 -36.0028
lclavicle -5.96354e-016 1.6934e-014
lhumerus -38.9219 -10.2883 87.9911
lradius 34.0067
lwrist -7.64706
lhand -37.0149 -1.74368
lfingers 7.12502
lthumb -10.089 27.9945
rfemur -33.8974 -3.38785 16.5755
rtibia 69.4351
rfoot -4.17564 -6.09259
rtoes -18.2098
lfemur -29.2626 -12.7203 -27.073
ltibia 21.5159
lfoot -6.22784 17.6011
ltoes -4.70731
503
root 5.56079 16.424 -1.89991 -86.5025 -85.5467 101.655
lowerback -5.42656 -0.581866 -2.46766
upperback -4.2384 -0.811245 -1.5688
thorax -1.31151 -0.425443 -0.261273
lowerneck -16.2338 -1.76105 0.463636
upperneck 20.6372 -3.07694 1.35387
head 9.18616 -1.32316 -0.0119733
rclavicle -1.59028e-015 -2.70223e-015
rhumerus -35.056 0.0147391 -84.4427
rradius 35.8448
rwrist 14.088
rhand -25.0993 -5.99677
rfingers 7.12502
rthumb 1.41569 -35.9718
lclavicle -1.59028e-015 -2.70223e-015
lhumerus -38.4979 -10.7363 87.9604
lradius 34.1416
lwrist -7.95951
lhand -37.0482 -1.71767
lfingers 7.12502
lthumb -10.1211 28.0189
rfemur -35.4791 -3.41046 16.5615
rtibia 70.4908
rfoot -4.97353 -6.52688
rtoes -17.2442
lfemur -28.9459 -12.677 -27.2775
ltibia 21.8346
lfoot -6.83805 17.7138
ltoes -4.70408
504
root 5.5752 16.4202 -1.88337 -85.5968 -85.5847 100.75
lowerback -5.43793 -0.714566 -2.42805
upperback -4.23176 -0.987681 -1.49268
thorax -1.29512 -0.51346 -0.212935
lowerneck -16.2538 -1.72035 0.402156
upperneck 20.7527 -3.00751 1.33859
head 9.23013 -1.29723 0.000676197
rclavicle 7.95139e-015 9.93923e-015
rhumerus -35.2589 -0.290002 -84.3042
rradius 35.4854
rwrist 14.0612
rhand -25.177 -6.1431
rfingers 7.12502
rthumb 1.34058 -36.1186
lclavicle 7.95139e-015 9.93923e-015
lhumerus -37.9693 -11.0891 87.9739
lradius 34.2181
lwrist -8.05776
lhand -37.2515 -1.65048
lfingers 7.12502
lthumb -10.3172 28.0765
rfemur -36.9759 -3.44837 16.6572
rtibia 71.2019
rfoot -5.66322 -6.92366
rtoes -16.7825
lfemur -28.626 -12.7762 -27.3874
ltibia 22.1735
lfoot -7.39132 17.8331
ltoes -4.74648
505
root 5.58731 16.4136 -1.86714 -86.8269 -85.6104 101.966
lowerback -5.44335 -0.763667 -2.36216
upperback -4.25619 -1.05659 -1.45585
thorax -1.31663 -0.548929 -0.214776
lowerneck -16.1975 -1.6977 0.430369
upperneck 20.8843 -2.97951 1.28372
head 9.2639 -1.28934 -0.0197801
rclavicle -5.1684e-015 -3.70236e-015
rhumerus -35.5315 -0.966856 -84.0244
rradius 34.9441
rwrist 14.7371
rhand -25.2922 -5.85513
rfingers 7.12502
rthumb 1.22934 -35.8313
lclavicle -5.1684e-015 -3.70236e-015
lhumerus -37.5287 -11.3388 87.8805
lradius 34.3499
lwrist -8.22728
lhand -37.1102 -1.75956
lfingers 7.12502
lthumb -10.181 27.9741
rfemur -38.3656 -3.29835 16.7391
rtibia 71.594
rfoot -6.465 -7.16812
rtoes -16.2348
lfemur -28.2601 -12.7702 -27.5167
ltibia 22.5225
lfoot -8.08429 18.058
ltoes -4.81294
506
root 5.5974 16.4114 -1.85103 -88.0091 -85.7626 103.045
lowerback -5.40196 -0.801954 -2.17707
upperback -4.22654 -1.11216 -1.37843
thorax -1.30943 -0.578795 -0.240736
lowerneck -16.118 -1.66771 0.449478
upperneck 20.8991 -2.93334 1.23528
head 9.25297 -1.27305 -0.0331326
rclavicle 3.57812e-015 3.2054e-015
rhumerus -35.8414 -1.49004 -83.7652
rradius 34.5893
rwrist 15.042
rhand -25.2666 -5.80921
rfingers 7.12502
rthumb 1.25412 -35.7853
lclavicle 3.57812e-015 3.2054e-015
lhumerus -36.9813 -11.5127 87.7785
lradius 34.3992
lwrist -8.47667
lhand -37.2098 -1.84688
lfingers 7.12502
lthumb -10.2771 27.882
rfemur -39.5397 -2.99335 16.9519
rtibia 71.6142
rfoot -7.2491 -7.37244
rtoes -15.705
lfemur -27.7889 -12.8043 -27.5137
ltibia 22.8686
lfoot -8.69482 18.2755
ltoes -4.62332
507
root 5.61011 16.4076 -1.83524 -90.3232 -85.7806 105.345
lowerback -5.37867 -0.818913 -2.12567
upperback -4.25331 -1.13784 -1.31008
thorax -1.34911 -0.591508 -0.199732
lowerneck -16.0421 -1.67005 0.359601
upperneck 20.9545 -2.92362 1.26027
head 9.25986 -1.27436 -0.00818316
rclavicle 7.55382e-015 2.23633e-014
rhumerus -36.184 -2.00153 -83.4283
rradius 34.213
rwrist 15.4764
rhand -25.1057 -5.71613
rfingers 7.12502
rthumb 1.40951 -35.6912
lclavicle 7.55382e-015 2.23633e-014
lhumerus -36.4537 -11.5488 87.689
lradius 34.4629
lwrist -8.59381
lhand -37.1446 -1.86943
lfingers 7.12502
lthumb -10.2141 27.8626
rfemur -40.7747 -2.617 17.0381
rtibia 71.3651
rfoot -7.97507 -7.49959
rtoes -15.4096
lfemur -27.3914 -12.9273 -27.5755
ltibia 23.1651
lfoot -9.3431 18.6341
ltoes -4.3468
508
root 5.62032 16.4011 -1.8213 -92.083 -85.8219 107.049
lowerback -5.3905 -0.860235 -2.06628
upperback -4.22882 -1.19193 -1.22704
thorax -1.31575 -0.61839 -0.1504
lowerneck -16.0946 -1.63705 0.32067
upperneck 21.1138 -2.8728 1.24354
head 9.32499 -1.25544 -0.00271922
rclavicle 1.74931e-014 5.41688e-015
rhumerus -36.4683 -2.56977 -83.0778
rradius 33.8784
rwrist 15.9419
rhand -24.9657 -5.64744
rfingers 7.12502
rthumb 1.54474 -35.6216
lclavicle 1.74931e-014 5.41688e-015
lhumerus -35.9262 -11.606 87.6188
lradius 34.5726
lwrist -8.53387
lhand -37.1231 -1.7397
lfingers 7.12502
lthumb -10.1934 27.9933
rfemur -41.8313 -2.17031 17.148
rtibia 70.8056
rfoot -8.71223 -7.71964
rtoes -15.2543
lfemur -26.9258 -13.0443 -27.647
ltibia 23.4495
lfoot -9.9677 19.0632
ltoes -4.5849
509
root 5.63121 16.3975 -1.8058 -94.3134 -85.7655 109.222
lowerback -5.36885 -0.866944 -2.03588
upperback -4.21024 -1.20133 -1.21359
thorax -1.30867 -0.623336 -0.153795
lowerneck -16.0583 -1.61497 0.375493
upperneck 21.1243 -2.84486 1.18853
head 9.32007 -1.24492 -0.0269693
rclavicle -1.59028e-014 -1.90833e-014
rhumerus -36.7693 -3.12499 -82.7346
rradius 33.5222
rwrist 16.4002
rhand -24.7542 -5.48522
rfingers 7.12502
rthumb 1.74899 -35.4578
lclavicle -1.59028e-014 -1.90833e-014
lhumerus -35.4267 -11.7621 87.5246
lradius 34.7817
lwrist -8.33001
lhand -37.1262 -1.66816
lfingers 7.12502
lthumb -10.1964 28.0647
rfemur -42.8182 -1.63572 17.1212
rtibia 69.9734
rfoot -9.39664 -8.0187
rtoes -15.1062
lfemur -26.439 -13.2256 -27.8034
ltibia 23.6771
lfoot -10.4947 19.5714
ltoes -4.90017
510
root 5.64291 16.3918 -1.79329 -95.8176 -85.7286 110.703
lowerback -5.38351 -0.915264 -2.05684
upperback -4.20767 -1.26356 -1.14584
thorax -1.29517 -0.653061 -0.075441
lowerneck -16.0328 -1.57398 0.383631
upperneck 21.1315 -2.77156 1.10849
head 9.31594 -1.21951 -0.0463686
rclavicle -1.63003e-014 -1.76918e-014
rhumerus -37.0505 -3.45263 -82.4274
rradius 33.1972
rwrist 16.5053
rhand -24.5368 -5.3417
rfingers 7.12502
rthumb 1.9589 -35.3125
lclavicle -1.63003e-014 -1.76918e-014
lhumerus -34.9253 -11.7512 87.4505
lradius 34.8915
lwrist -8.06887
lhand -37.1496 -1.78733
lfingers 7.12502
lthumb -10.219 27.9445
rfemur -43.7107 -1.07646 17.1184
rtibia 68.8446
rfoot -10.0159 -8.38429
rtoes -14.8829
lfemur -25.9566 -13.4356 -27.9309
ltibia 23.893
lfoot -11.1364 20.0437
ltoes -4.89675
511
root 5.65402 16.386 -1.77892 -97.4128 -85.708 112.323
lowerback -5.41902 -0.971247 -2.02469
upperback -4.21623 -1.33812 -1.07167
thorax -1.2821 -0.69022 -0.0210522
lowerneck -16.0913 -1.53159 0.32629
upperneck 21.2091 -2.70885 1.13777
head 9.35484 -1.19126 -0.0199389
rclavicle -1.11319e-014 -2.28602e-014
rhumerus -37.3251 -3.85487 -82.0885
rradius 32.8655
rwrist 16.9951
rhand -24.4425 -5.20451
rfingers 7.12502
rthumb 2.04997 -35.1744
lclavicle -1.11319e-014 -2.28602e-014
lhumerus -34.4425 -11.6695 87.3492
lradius 35.0636
lwrist -7.99264
lhand -37.119 -1.69417
lfingers 7.12502
lthumb -10.1895 28.0391
rfemur -44.5594 -0.456438 17.0559
rtibia 67.4672
rfoot -10.3431 -8.78451
rtoes -14.2746
lfemur -25.5548 -13.8321 -27.991
ltibia 24.1117
lfoot -11.7075 20.69
ltoes -5.01007
512
root 5.6648 16.3786 -1.76587 -98.6107 -85.7589 113.571
lowerback -5.4258 -1.03164 -1.91217
upperback -4.25304 -1.42376 -0.990726
thorax -1.31542 -0.734433 -0.00425715
lowerneck -16.0949 -1.47279 0.344396
upperneck 21.186 -2.62284 1.1053
head 9.34628 -1.15337 -0.0230819
rclavicle 2.70347e-014 -1.68967e-015
rhumerus -37.6018 -3.95063 -81.88
rradius 32.5905
rwrist 17.0961
rhand -24.2068 -5.36896
rfingers 7.12502
rthumb 2.27764 -35.3365
lclavicle 2.70347e-014 -1.68967e-015
lhumerus -34.0737 -11.7585 87.3162
lradius 35.4001
lwrist -7.5029
lhand -37.1798 -1.57961
lfingers 7.12502
lthumb -10.2481 28.1507
rfemur -45.2914 0.10062 17.1058
rtibia 65.8125
rfoot -10.7875 -9.15552
rtoes -14.1136
lfemur -25.1835 -14.3032 -27.9682
ltibia 24.3365
lfoot -12.3388 21.3773
ltoes -4.66023
513
root 5.67555 16.3679 -1.75656 -100.083 -85.8449 115.107
lowerback -5.46924 -1.0854 -1.82125
upperback -4.28824 -1.49835 -0.874199
thorax -1.32551 -0.77233 0.0607969
lowerneck -16.0528 -1.41546 0.361336
upperneck 21.1231 -2.53269 1.05599
head 9.31514 -1.11596 -0.0306533
rclavicle -1.59028e-015 -8.94531e-015
rhumerus -37.8578 -4.21321 -81.5289
rradius 32.3002
rwrist 17.3334
rhand -23.9908 -5.15456
rfingers 7.12502
rthumb 2.48627 -35.1198
lclavicle -1.59028e-015 -8.94531e-015
lhumerus -33.7011 -11.7187 87.2699
lradius 35.6882
lwrist -7.32959
lhand -37.1412 -1.57538
lfingers 7.12502
lthumb -10.2109 28.1568
rfemur -45.9426 0.710928 17.1861
rtibia 63.924
rfoot -11.099 -9.72611
rtoes -14.274
lfemur -24.7727 -14.7977 -27.8862
ltibia 24.4745
lfoot -12.8108 22.0798
ltoes -4.6594
